<svg xmlns="http://www.w3.org/2000/svg" width="232" height="232" viewBox="0 0 232 232">
  <defs>
    <style>
      .cls-1 {
        fill: #07224d;
      }

      .cls-1, .cls-2 {
        fill-rule: evenodd;
      }

      .cls-2 {
        fill: #09ccbc;
      }
    </style>
  </defs>
  <path id="Rectangle_1_copy" data-name="Rectangle 1 copy" class="cls-1" d="M0,31H32v74H0V31Zm32,0V-1h74V31H32Z"/>
  <path id="Rectangle_1_copy_2" data-name="Rectangle 1 copy 2" class="cls-2" d="M64,63v42H32V31h74V63H64Z"/>
  <path id="Rectangle_1_copy_3" data-name="Rectangle 1 copy 3" class="cls-1" d="M232,31H200v74h32V31Zm-32,0V-1H126V31h74Z"/>
  <path id="Rectangle_1_copy_3-2" data-name="Rectangle 1 copy 3" class="cls-2" d="M168,105V63H126V31h74v74H168Z"/>
  <path id="Rectangle_1_copy_4" data-name="Rectangle 1 copy 4" class="cls-1" d="M0,200H32V126H0v74Zm32,0v32h74V200H32Z"/>
  <path id="Rectangle_1_copy_4-2" data-name="Rectangle 1 copy 4" class="cls-2" d="M32,200V126H64v42h42v32H32Z"/>
  <path id="Rectangle_1_copy_4-3" data-name="Rectangle 1 copy 4" class="cls-1" d="M232,200H200V126h32v74Zm-32,0v32H126V200h74Z"/>
  <path id="Rectangle_1_copy_4-4" data-name="Rectangle 1 copy 4" class="cls-2" d="M126,200V168h42V126h32v74H126Z"/>
  <path class="cls-1" d="M126.925,116.279L134,149H97l7.83-32.189A19.51,19.51,0,1,1,126.925,116.279Z"/>
</svg>
